
<svg width="1265" height="768" viewBox="0 0 1265 768" fill="none" xmlns="http://www.w3.org/2000/svg">
<g clip-path="url(#clip0)">
<g opacity="0.2">
<path d="M-140 -53.9987L562.521 373.564V913.449L-140 485.886V-53.9987Z" fill="#CBCBCB"/>
<path d="M1265.06 485.886V-53.9987L562.54 373.564V913.449L1265.06 485.886Z" fill="#E6E6E6"/>
<path d="M-140 1340.97L562.521 913.408V373.523L-140 801.086V1340.97Z" fill="#E6E6E6"/>
<path d="M1265.06 801.086V1340.97L562.54 913.408V373.523L1265.06 801.086Z" fill="#CBCBCB"/>
</g>
<path d="M152.607 384.361C155.447 384.891 157.853 386.335 159.827 388.693C161.8 391.051 162.787 393.795 162.787 396.923C162.787 399.474 162.137 401.784 160.837 403.854C159.586 405.875 157.733 407.487 155.278 408.691C152.824 409.846 149.888 410.423 146.471 410.423H129V359.96H145.965C151.067 359.96 154.942 361.139 157.589 363.497C160.284 365.856 161.631 368.912 161.631 372.666C161.631 375.794 160.789 378.345 159.105 380.318C157.42 382.244 155.254 383.591 152.607 384.361ZM134.054 382.268H145.821C149.238 382.268 151.861 381.474 153.69 379.885C155.567 378.249 156.506 376.011 156.506 373.171C156.506 370.38 155.567 368.19 153.69 366.602C151.861 365.013 149.166 364.219 145.604 364.219H134.054V382.268ZM146.11 406.164C149.768 406.164 152.607 405.297 154.629 403.565C156.698 401.832 157.733 399.45 157.733 396.418C157.733 393.385 156.65 390.979 154.484 389.198C152.367 387.369 149.503 386.455 145.893 386.455H134.054V406.164H146.11Z" fill="black"/>
<path d="M189.331 411.001C185.625 411.001 182.28 410.183 179.296 408.546C176.36 406.862 174.026 404.503 172.293 401.471C170.608 398.391 169.766 394.805 169.766 390.714C169.766 386.623 170.632 383.062 172.365 380.03C174.098 376.949 176.456 374.591 179.44 372.955C182.424 371.27 185.769 370.428 189.475 370.428C193.181 370.428 196.526 371.27 199.51 372.955C202.542 374.591 204.9 376.949 206.585 380.03C208.317 383.062 209.184 386.623 209.184 390.714C209.184 394.757 208.317 398.319 206.585 401.399C204.852 404.479 202.47 406.862 199.438 408.546C196.406 410.183 193.037 411.001 189.331 411.001ZM189.331 406.597C191.93 406.597 194.336 406.019 196.55 404.864C198.764 403.661 200.545 401.88 201.892 399.522C203.288 397.115 203.986 394.18 203.986 390.714C203.986 387.249 203.312 384.337 201.964 381.979C200.617 379.572 198.836 377.792 196.622 376.637C194.408 375.433 192.002 374.832 189.403 374.832C186.804 374.832 184.397 375.433 182.183 376.637C179.97 377.792 178.189 379.572 176.841 381.979C175.542 384.337 174.892 387.249 174.892 390.714C174.892 394.18 175.542 397.115 176.841 399.522C178.189 401.88 179.945 403.661 182.111 404.864C184.325 406.019 186.732 406.597 189.331 406.597Z" fill="black"/>
<path d="M216.086 390.642C216.086 386.599 216.88 383.062 218.468 380.03C220.104 376.949 222.342 374.591 225.182 372.955C228.07 371.27 231.318 370.428 234.928 370.428C238.682 370.428 241.907 371.294 244.602 373.027C247.345 374.76 249.319 376.974 250.522 379.669V371.006H255.575V410.423H250.522V401.688C249.271 404.383 247.273 406.621 244.53 408.402C241.835 410.134 238.61 411.001 234.856 411.001C231.294 411.001 228.07 410.158 225.182 408.474C222.342 406.789 220.104 404.407 218.468 401.327C216.88 398.247 216.086 394.685 216.086 390.642ZM250.522 390.714C250.522 387.538 249.872 384.746 248.573 382.34C247.273 379.933 245.492 378.08 243.23 376.781C241.016 375.482 238.562 374.832 235.867 374.832C233.075 374.832 230.572 375.457 228.358 376.709C226.145 377.96 224.388 379.789 223.088 382.196C221.837 384.554 221.211 387.369 221.211 390.642C221.211 393.867 221.837 396.706 223.088 399.161C224.388 401.567 226.145 403.42 228.358 404.72C230.572 405.971 233.075 406.597 235.867 406.597C238.562 406.597 241.016 405.947 243.23 404.648C245.492 403.348 247.273 401.495 248.573 399.089C249.872 396.682 250.522 393.891 250.522 390.714Z" fill="black"/>
<path d="M272.166 378.008C273.273 375.554 274.957 373.653 277.219 372.305C279.53 370.957 282.345 370.284 285.666 370.284V375.554H284.294C280.636 375.554 277.701 376.54 275.487 378.514C273.273 380.487 272.166 383.784 272.166 388.404V410.423H267.112V371.006H272.166V378.008Z" fill="black"/>
<path d="M290.958 390.642C290.958 386.599 291.776 383.062 293.413 380.03C295.049 376.949 297.287 374.591 300.127 372.955C303.014 371.27 306.263 370.428 309.873 370.428C313.338 370.428 316.466 371.27 319.258 372.955C322.049 374.639 324.095 376.829 325.394 379.524V357H330.448V410.423H325.394V401.616C324.191 404.359 322.218 406.621 319.474 408.402C316.731 410.134 313.506 411.001 309.801 411.001C306.191 411.001 302.942 410.158 300.054 408.474C297.215 406.789 294.977 404.407 293.34 401.327C291.752 398.247 290.958 394.685 290.958 390.642ZM325.394 390.714C325.394 387.538 324.745 384.746 323.445 382.34C322.146 379.933 320.365 378.08 318.103 376.781C315.889 375.482 313.434 374.832 310.739 374.832C307.948 374.832 305.445 375.457 303.231 376.709C301.017 377.96 299.26 379.789 297.961 382.196C296.709 384.554 296.084 387.369 296.084 390.642C296.084 393.867 296.709 396.706 297.961 399.161C299.26 401.567 301.017 403.42 303.231 404.72C305.445 405.971 307.948 406.597 310.739 406.597C313.434 406.597 315.889 405.947 318.103 404.648C320.365 403.348 322.146 401.495 323.445 399.089C324.745 396.682 325.394 393.891 325.394 390.714Z" fill="black"/>
<path d="M347.038 378.008C348.145 375.554 349.83 373.653 352.092 372.305C354.402 370.957 357.218 370.284 360.538 370.284V375.554H359.167C355.509 375.554 352.573 376.54 350.359 378.514C348.145 380.487 347.038 383.784 347.038 388.404V410.423H341.985V371.006H347.038V378.008Z" fill="black"/>
<path d="M385.395 411.001C381.689 411.001 378.344 410.183 375.36 408.546C372.424 406.862 370.09 404.503 368.357 401.471C366.673 398.391 365.831 394.805 365.831 390.714C365.831 386.623 366.697 383.062 368.43 380.03C370.162 376.949 372.52 374.591 375.504 372.955C378.488 371.27 381.833 370.428 385.539 370.428C389.245 370.428 392.59 371.27 395.574 372.955C398.606 374.591 400.965 376.949 402.649 380.03C404.382 383.062 405.248 386.623 405.248 390.714C405.248 394.757 404.382 398.319 402.649 401.399C400.917 404.479 398.534 406.862 395.502 408.546C392.47 410.183 389.101 411.001 385.395 411.001ZM385.395 406.597C387.994 406.597 390.4 406.019 392.614 404.864C394.828 403.661 396.609 401.88 397.957 399.522C399.352 397.115 400.05 394.18 400.05 390.714C400.05 387.249 399.376 384.337 398.029 381.979C396.681 379.572 394.9 377.792 392.687 376.637C390.473 375.433 388.066 374.832 385.467 374.832C382.868 374.832 380.462 375.433 378.248 376.637C376.034 377.792 374.253 379.572 372.906 381.979C371.606 384.337 370.956 387.249 370.956 390.714C370.956 394.18 371.606 397.115 372.906 399.522C374.253 401.88 376.01 403.661 378.176 404.864C380.39 406.019 382.796 406.597 385.395 406.597Z" fill="black"/>
<path d="M431.714 411.001C428.008 411.001 424.664 410.183 421.68 408.546C418.744 406.862 416.409 404.503 414.677 401.471C412.992 398.391 412.15 394.805 412.15 390.714C412.15 386.623 413.016 383.062 414.749 380.03C416.482 376.949 418.84 374.591 421.824 372.955C424.808 371.27 428.153 370.428 431.859 370.428C435.565 370.428 438.91 371.27 441.894 372.955C444.926 374.591 447.284 376.949 448.969 380.03C450.701 383.062 451.568 386.623 451.568 390.714C451.568 394.757 450.701 398.319 448.969 401.399C447.236 404.479 444.854 406.862 441.821 408.546C438.789 410.183 435.42 411.001 431.714 411.001ZM431.714 406.597C434.313 406.597 436.72 406.019 438.934 404.864C441.148 403.661 442.928 401.88 444.276 399.522C445.672 397.115 446.37 394.18 446.37 390.714C446.37 387.249 445.696 384.337 444.348 381.979C443.001 379.572 441.22 377.792 439.006 376.637C436.792 375.433 434.386 374.832 431.787 374.832C429.188 374.832 426.781 375.433 424.567 376.637C422.353 377.792 420.573 379.572 419.225 381.979C417.925 384.337 417.276 387.249 417.276 390.714C417.276 394.18 417.925 397.115 419.225 399.522C420.573 401.88 422.329 403.661 424.495 404.864C426.709 406.019 429.115 406.597 431.714 406.597Z" fill="black"/>
<path d="M507.705 370.284C512.326 370.284 516.08 371.752 518.967 374.687C521.903 377.575 523.371 381.786 523.371 387.321V410.423H518.39V387.899C518.39 383.615 517.355 380.343 515.286 378.08C513.216 375.818 510.401 374.687 506.839 374.687C503.133 374.687 500.173 375.915 497.959 378.369C495.745 380.824 494.638 384.385 494.638 389.054V410.423H489.657V387.899C489.657 383.615 488.622 380.343 486.553 378.08C484.483 375.818 481.643 374.687 478.034 374.687C474.328 374.687 471.368 375.915 469.154 378.369C466.94 380.824 465.833 384.385 465.833 389.054V410.423H460.78V371.006H465.833V377.792C467.084 375.337 468.865 373.484 471.175 372.233C473.486 370.933 476.061 370.284 478.9 370.284C482.317 370.284 485.301 371.102 487.852 372.738C490.451 374.375 492.328 376.781 493.483 379.958C494.542 376.829 496.347 374.447 498.898 372.81C501.497 371.126 504.433 370.284 507.705 370.284Z" fill="black"/>
<path d="M535.371 357.176L562.184 373.495V394.102L535.371 377.782V357.176Z" fill="#FF9AA2"/>
<path d="M589 377.782V357.176L562.187 373.495V394.102L589 377.782Z" fill="#FFC39B"/>
<path d="M589.003 410.414L562.189 394.094V373.488L589.003 389.807V410.414Z" fill="#8CB2FD"/>
<path d="M535.373 389.807V410.414L562.187 394.094V373.488L535.373 389.807Z" fill="#8DF6D0"/>
</g>
<defs>
<clipPath id="clip0">
<rect width="1265" height="768" fill="white"/>
</clipPath>
</defs>
</svg>
